<svg width="108" height="108" viewBox="0 0 108 125" fill="none" xmlns="http://www.w3.org/2000/svg">
<path fill-rule="evenodd" clip-rule="evenodd" d="M57.9173 1.89281C56.9378 0.65795 55.4334 -0.0427756 53.8579 0.0020113C52.2824 0.0467982 50.8202 0.831854 49.9125 2.12036C43.879 10.6846 38.5017 16.584 31.6584 21.5013C24.7549 26.4619 16.1094 30.6039 3.27965 35.3053C0.953746 36.1576 -0.397454 38.5845 0.103174 41.0105C4.1344 60.5457 9.13458 75.0269 17.1218 87.7752C25.0972 100.505 35.8453 111.175 50.8445 123.378C52.6975 124.886 55.3581 124.872 57.1954 123.346C71.6783 111.312 82.1149 100.778 90.0593 88.0958C98.0058 75.4104 103.265 60.8872 107.869 41.1351C108.399 38.8631 107.287 36.5268 105.19 35.505C80.1426 23.3026 69.3012 16.2449 57.9173 1.89281ZM37.4938 29.6222C43.9289 24.9982 49.1353 19.6958 54.2544 13.0834C65.1134 25.294 76.7715 32.6131 97.2047 42.7253C92.9705 59.8741 88.2297 72.1795 81.5848 82.7871C74.9955 93.306 66.3686 102.421 53.9662 112.994C41.0714 102.233 32.1966 93.0011 25.596 82.4659C19.0132 71.9591 14.5166 59.8728 10.7928 43.1681C21.9133 38.8978 30.3597 34.7484 37.4938 29.6222ZM55.987 54.6625C55.594 54.2256 55.0289 53.9837 54.4416 54.0008C53.8542 54.018 53.3042 54.2926 52.9374 54.7517C50.931 57.2631 49.1536 58.9812 46.8888 60.4163C44.5931 61.8709 41.7033 63.0945 37.385 64.4899C36.3949 64.8099 35.8155 65.8355 36.0526 66.8487C37.4223 72.702 39.1322 77.0846 41.8782 80.9496C44.611 84.7959 48.2769 87.9967 53.3341 91.625C54.037 92.1293 54.9843 92.1245 55.6821 91.6133C60.5665 88.0344 64.1255 84.8746 66.8461 81.0448C69.5747 77.2037 71.371 72.8154 72.9336 66.9041C73.1869 65.9459 72.7001 64.9466 71.7894 64.5554C63.3511 60.9302 59.7579 58.8548 55.987 54.6625ZM49.0298 63.7951C51.1617 62.4442 52.9009 60.8987 54.5968 58.9925C58.1895 62.5059 62.0616 64.6614 68.6103 67.5361C67.2353 72.3111 65.6979 75.754 63.5851 78.7283C61.427 81.7663 58.5937 84.4216 54.4875 87.5178C50.2149 84.3643 47.3001 81.6746 45.139 78.6329C43.0549 75.6996 41.5981 72.3338 40.3853 67.7067C43.9412 66.4839 46.6882 65.2788 49.0298 63.7951ZM43.3478 41.6174C38.906 44.6262 33.7251 46.8636 26.4101 48.9428L25.5899 46.0571C32.7169 44.0313 37.5737 41.9052 41.6653 39.1336C45.7652 36.3563 49.1764 32.8783 53.3639 28.0206L55.6501 28.037C60.456 33.7768 64.3553 37.0528 68.2968 39.502C71.2897 41.3618 74.2999 42.7471 77.8494 44.3805L77.8498 44.3807L77.8503 44.3809C79.0464 44.9314 80.3038 45.51 81.6425 46.1445L80.3575 48.8554C79.1013 48.26 77.8931 47.7041 76.7228 47.1658C73.1206 45.5086 69.8793 44.0174 66.7134 42.0501C62.7876 39.6106 58.9649 36.4412 54.4887 31.2976C50.7309 35.5686 47.376 38.8887 43.3478 41.6174ZM26.4101 57.9428C33.7251 55.8636 38.906 53.6262 43.3478 50.6174C47.376 47.8887 50.7309 44.5686 54.4887 40.2976C58.9649 45.4412 62.7876 48.6106 66.7134 51.0501C69.8793 53.0174 73.1206 54.5086 76.7228 56.1658C77.8931 56.7041 79.1013 57.26 80.3575 57.8554L81.6425 55.1445C80.3037 54.51 79.0461 53.9312 77.8498 53.3807L77.8494 53.3805C74.2999 51.7471 71.2897 50.3618 68.2968 48.502C64.3553 46.0528 60.456 42.7768 55.6501 37.037L53.3639 37.0206C49.1764 41.8783 45.7652 45.3563 41.6653 48.1336C37.5737 50.9052 32.7169 53.0313 25.5899 55.0571L26.4101 57.9428Z" fill="url(#paint0_linear)"/>
<defs>
<linearGradient id="paint0_linear" x1="53.9999" y1="-1.52588e-05" x2="53.9999" y2="124.5" gradientUnits="userSpaceOnUse">
<stop stop-color="#01F0FF"/>
<stop offset="1" stop-color="#4301FF"/>
</linearGradient>
</defs>
</svg>